<?xml version="1.0" encoding="iso-8859-1"?>
<!-- Uploaded to: SVG Repo, www.svgrepo.com, Generator: SVG Repo Mixer Tools -->
<svg height="800px" width="800px" version="1.1" id="Layer_1" xmlns="http://www.w3.org/2000/svg" xmlns:xlink="http://www.w3.org/1999/xlink" 
	 viewBox="0 0 512 512" xml:space="preserve">
<g>
	<path style="fill:#FFB655;" d="M256,412.903c-13.682,0-24.774,11.092-24.774,24.774v49.548C231.226,500.908,242.318,512,256,512
		c13.682,0,24.774-11.092,24.774-24.774v-49.548C280.774,423.995,269.682,412.903,256,412.903z"/>
	<path style="fill:#FFB655;" d="M256,0c-13.682,0-24.774,11.092-24.774,24.774v49.548c0,13.682,11.092,24.774,24.774,24.774
		c13.682,0,24.774-11.092,24.774-24.774V24.774C280.774,11.092,269.682,0,256,0z"/>
	<path style="fill:#FFB655;" d="M256.003,148.645H256C196.808,148.647,148.652,196.806,148.652,256S196.808,363.352,256,363.355
		h0.003c59.197,0,107.358-48.159,107.358-107.355S315.2,148.645,256.003,148.645z"/>
</g>
<g>
	<path style="fill:#FF9811;" d="M148.652,256.002c0,59.194,48.156,107.352,107.348,107.353v-214.71
		C196.808,148.647,148.652,196.806,148.652,256.002z"/>
	<path style="fill:#FF9811;" d="M256,0c-13.682,0-24.774,11.092-24.774,24.774v49.548c0,13.682,11.092,24.774,24.774,24.774V0z"/>
	<path style="fill:#FF9811;" d="M231.226,437.677v49.548C231.226,500.908,242.318,512,256,512v-99.097
		C242.318,412.903,231.226,423.995,231.226,437.677z"/>
</g>
<path style="fill:#FFB655;" d="M512,256c0-13.682-11.092-24.774-24.774-24.774h-49.548c-13.682,0-24.774,11.092-24.774,24.774
	c0,13.682,11.092,24.774,24.774,24.774h49.548C500.908,280.774,512,269.682,512,256z"/>
<path style="fill:#FF9811;" d="M0,256c0,13.682,11.092,24.774,24.774,24.774h49.548c13.682,0,24.774-11.092,24.774-24.774
	c0-13.682-11.092-24.774-24.774-24.774H24.774C11.092,231.226,0,242.318,0,256z"/>
<path style="fill:#FFB655;" d="M384.464,152.308c6.339,0,12.681-2.42,17.517-7.257l35.037-35.036c9.675-9.675,9.675-25.361,0-35.036
	c-9.673-9.675-25.359-9.675-35.036,0l-35.037,35.036c-9.675,9.675-9.675,25.361,0,35.036
	C371.785,149.889,378.124,152.308,384.464,152.308z"/>
<path style="fill:#FF9811;" d="M92.499,444.276c6.341,0,12.681-2.418,17.517-7.256l35.037-35.037c9.675-9.673,9.675-25.361,0-35.036
	c-9.674-9.675-25.361-9.675-35.036,0L74.98,401.984c-9.675,9.673-9.675,25.361,0,35.036
	C79.817,441.858,86.158,444.276,92.499,444.276z"/>
<path style="fill:#FFB655;" d="M401.983,366.947c-9.673-9.675-25.361-9.675-35.036,0c-9.675,9.673-9.675,25.361,0,35.036
	l35.037,35.037c4.838,4.838,11.178,7.256,17.517,7.256c6.341,0,12.681-2.418,17.517-7.256c9.675-9.673,9.675-25.361,0-35.036
	L401.983,366.947z"/>
<path style="fill:#FF9811;" d="M110.017,145.051c4.838,4.838,11.178,7.257,17.519,7.257c6.341,0,12.681-2.42,17.517-7.257
	c9.675-9.675,9.675-25.361,0-35.036l-35.037-35.037c-9.673-9.674-25.361-9.674-35.036,0c-9.675,9.675-9.675,25.361,0,35.036
	L110.017,145.051z"/>
</svg>