<?xml version="1.0" encoding="UTF-8" standalone="no"?>
<!DOCTYPE svg PUBLIC "-//W3C//DTD SVG 1.1//EN" "http://www.w3.org/Graphics/SVG/1.1/DTD/svg11.dtd">
<svg width="100%" height="100%" viewBox="0 0 608 817" version="1.1" xmlns="http://www.w3.org/2000/svg" xmlns:xlink="http://www.w3.org/1999/xlink" xml:space="preserve" xmlns:serif="http://www.serif.com/" style="fill-rule:evenodd;clip-rule:evenodd;stroke-linejoin:round;stroke-miterlimit:2;">
    <g transform="matrix(1,0,0,1,-6671.76,-2687.23)">
        <g transform="matrix(3.5637,0,0,1.78185,3411.85,1897.46)">
            <g transform="matrix(0.319676,0,0,0.639351,872.13,421.913)">
                <path d="M400,83.333C273,83.333 183.333,174.767 183.333,287.3C183.333,338.5 204.4,373.033 230.833,405.967C236.567,413.133 242.4,420.033 248.4,427.133L251.6,430.867C258.6,439.2 265.833,447.8 272.6,456.667C286.067,474.367 298.7,494.267 305.767,517.8C306.361,519.96 306.662,522.189 306.662,524.429C306.662,538.144 295.376,549.429 281.662,549.429C270.877,549.429 261.252,542.45 257.9,532.2C253.3,516.867 244.667,502.533 232.8,486.967C226.533,478.872 220.065,470.936 213.4,463.167L210.333,459.5C204.333,452.433 198,444.967 191.833,437.267C162.333,400.533 133.333,355.033 133.333,287.267C133.333,145.433 247.167,33.333 400,33.333C534.761,33.333 639.201,120.464 662.016,238.35C665.075,254.159 666.667,270.521 666.667,287.3C666.667,355.033 637.667,400.533 608.167,437.3C602,444.967 595.667,452.433 589.667,459.533L586.6,463.167C579.6,471.433 573.1,479.2 567.2,486.967C555.333,502.533 546.7,516.9 542.1,532.2C538.931,542.741 529.158,550.009 518.15,550.009C504.431,550.009 493.141,538.719 493.141,525C493.141,522.561 493.498,520.136 494.2,517.8C501.3,494.267 513.933,474.367 527.433,456.667C534.167,447.8 541.4,439.2 548.433,430.867L551.6,427.133C557.6,420.033 563.433,413.133 569.167,406C595.6,373 616.667,338.5 616.667,287.3C616.667,222.606 587.032,164.885 537.706,127.501C501.231,99.857 453.989,83.333 400,83.333ZM316.667,725C316.667,711.285 327.952,700 341.667,700L458.333,700C472.048,700 483.333,711.285 483.333,725C483.333,738.715 472.048,750 458.333,750L341.667,750C327.952,750 316.667,738.715 316.667,725ZM291.667,600C277.952,600 266.667,611.285 266.667,625C266.667,638.715 277.952,650 291.667,650L508.333,650C522.048,650 533.333,638.715 533.333,625C533.333,611.285 522.048,600 508.333,600L291.667,600Z"/>
            </g>
        </g>
    </g>
</svg>
